# Blender 4.4.3
# www.blender.org
o Fork
v 0.039463 0.049814 0.068872
v -0.039463 0.049814 0.068872
v 0.055990 0.092898 0.068872
v -0.055990 0.092898 0.068872
v 0.116064 0.162776 0.068872
v -0.116064 0.162776 0.068872
v 0.116064 0.246620 0.068872
v -0.116064 0.246620 0.068872
v 0.076004 0.712447 -0.104556
v -0.076065 0.712447 -0.104556
v -0.023676 0.049814 0.068872
v -0.007890 0.049814 0.068872
v 0.007890 0.049814 0.068872
v 0.023676 0.049814 0.068872
v -0.033589 0.092898 0.068872
v -0.011196 0.092898 0.068872
v 0.011196 0.092898 0.068872
v 0.033589 0.092898 0.068872
v -0.069640 0.162776 0.068872
v -0.023216 0.162776 0.068872
v 0.023216 0.162776 0.068872
v 0.069640 0.162776 0.068872
v -0.069640 0.246620 0.068872
v -0.023216 0.246620 0.068872
v 0.023216 0.246620 0.068872
v 0.069640 0.246620 0.068872
v -0.060119 0.712447 -0.104556
v -0.006297 0.712447 -0.104556
v 0.006297 0.712447 -0.104556
v 0.060172 0.712447 -0.104556
v -0.034956 -0.091283 0.068872
v 0.034956 -0.091283 0.068872
v -0.043804 -0.314386 0.068872
v 0.043804 -0.314386 0.068872
v 0.039463 0.049814 -0.022942
v -0.039463 0.049814 -0.022942
v 0.055990 0.092898 -0.022940
v -0.055990 0.092898 -0.022940
v 0.116064 0.162776 -0.022940
v -0.116064 0.162776 -0.022940
v 0.116064 0.246620 -0.022940
v -0.116064 0.246620 -0.022940
v 0.076004 0.712447 -0.133043
v -0.076065 0.712447 -0.133043
v -0.023676 0.049814 -0.022942
v -0.007890 0.049814 -0.022942
v 0.007890 0.049814 -0.022942
v 0.023676 0.049814 -0.022942
v -0.033589 0.092898 -0.022940
v -0.011196 0.092898 -0.022940
v 0.011196 0.092898 -0.022940
v 0.033589 0.092898 -0.022940
v -0.069640 0.162776 -0.022940
v -0.023216 0.162776 -0.022940
v 0.023216 0.162776 -0.022940
v 0.069640 0.162776 -0.022940
v -0.069640 0.246620 -0.022940
v -0.023216 0.246620 -0.022940
v 0.023216 0.246620 -0.022940
v 0.069640 0.246620 -0.022940
v -0.060119 0.712447 -0.133043
v -0.006297 0.712447 -0.133043
v 0.006297 0.712447 -0.133043
v 0.060172 0.712447 -0.133043
v -0.034956 -0.091283 -0.022942
v 0.034956 -0.091283 -0.022942
v -0.043804 -0.314386 -0.022942
v 0.043804 -0.314386 -0.022942
v 0.054676 -1.089953 0.068872
v 0.100179 -1.029887 0.068872
v 0.088348 -1.066464 0.068872
v -0.100179 -1.029887 0.068872
v -0.054676 -1.089953 0.068872
v -0.088349 -1.066464 0.068872
v 0.100179 -1.029887 -0.022942
v 0.054676 -1.089953 -0.022942
v 0.088348 -1.066464 -0.022942
v -0.054676 -1.089953 -0.022942
v -0.100179 -1.029887 -0.022942
v -0.088349 -1.066464 -0.022942
v -0.049112 -1.091565 0.068872
v 0.049112 -1.091565 0.068872
v -0.000000 -1.097461 0.068872
v 0.049112 -1.091565 -0.022942
v -0.049112 -1.091565 -0.022942
v -0.000000 -1.097461 -0.022942
v 0.100594 0.479534 0.023088
v 0.060354 0.479534 0.023088
v 0.100594 0.479534 -0.068724
v 0.060354 0.479534 -0.068724
v 0.020120 0.479534 0.023088
v -0.020120 0.479534 0.023088
v 0.020120 0.479534 -0.068724
v -0.020120 0.479534 -0.068724
v -0.100587 0.479534 0.023088
v -0.060353 0.479534 0.023088
v -0.100587 0.479534 -0.068724
v -0.060353 0.479534 -0.068724
vn -0.0000 -0.0000 1.0000
vn -0.0000 0.0656 0.9978
vn -0.0000 0.0948 0.9955
vn -0.0000 0.3426 0.9395
vn -0.0000 0.4806 0.8769
vn -0.0000 0.3334 0.9428
vn -0.0000 0.3377 0.9413
vn -0.0000 0.0642 0.9979
vn -0.1993 -0.9799 -0.0000
vn -0.4309 -0.9024 -0.0000
vn -0.0000 -0.0000 -1.0000
vn -0.0000 -0.0948 -0.9955
vn -0.0000 -0.0656 -0.9978
vn -0.0000 -0.2302 -0.9732
vn -0.0000 -0.2277 -0.9737
vn -0.0000 -0.2662 -0.9639
vn -0.0000 -0.2289 -0.9735
vn -0.0000 -0.0642 -0.9979
vn -1.0000 0.0039 -0.0000
vn -0.9802 -0.1978 -0.0000
vn -0.0000 1.0000 -0.0000
vn -1.0000 -0.0000 -0.0000
vn -0.9995 0.0310 -0.0000
vn -0.9994 0.0351 -0.0000
vn 0.9995 0.0310 -0.0000
vn 1.0000 -0.0000 -0.0000
vn 0.9994 0.0351 -0.0000
vn -0.8586 -0.5126 -0.0000
vn -0.9932 -0.1168 -0.0000
vn -0.9983 0.0591 -0.0000
vn -0.9997 -0.0251 -0.0000
vn -1.0000 -0.0008 -0.0000
vn -0.9998 -0.0175 -0.0000
vn 0.8586 -0.5126 -0.0000
vn 0.9802 -0.1978 -0.0000
vn 0.9995 0.0306 -0.0000
vn 0.9999 0.0133 -0.0000
vn 0.9992 0.0396 -0.0000
vn -0.9967 0.0808 -0.0000
vn -0.9945 0.1047 -0.0000
vn -0.9961 0.0883 -0.0000
vn -0.9995 0.0306 -0.0000
vn -0.9982 0.0592 -0.0000
vn -0.9992 0.0396 -0.0000
vn 1.0000 0.0039 -0.0000
vn 0.9967 0.0809 -0.0000
vn 0.9961 0.0884 -0.0000
vn -0.7583 -0.6519 -0.0000
vn 0.9997 -0.0252 -0.0000
vn 0.9992 -0.0398 -0.0000
vn 0.9998 -0.0176 -0.0000
vn 0.7583 -0.6519 -0.0000
vn 0.4309 -0.9024 -0.0000
vn 0.1993 -0.9799 -0.0000
vn 0.9983 0.0591 -0.0000
vn -0.9515 -0.3077 -0.0000
vn -0.5721 -0.8202 -0.0000
vn 0.9932 -0.1168 -0.0000
vn 0.9515 -0.3077 -0.0000
vn 0.5721 -0.8202 -0.0000
vn -0.0000 -1.0000 -0.0000
vn 0.9945 0.1050 -0.0000
vn -0.9992 -0.0398 -0.0000
vn -0.9999 0.0133 -0.0000
vn 0.9982 0.0592 -0.0000
vn 1.0000 -0.0010 -0.0000
vt 0.068659 0.366404
vt 0.073531 0.342607
vt 0.084534 0.342607
vt 0.076413 0.366404
vt 0.091242 0.304019
vt 0.114052 0.304019
vt 0.091242 0.257713
vt 0.114052 0.257713
vt 0.086679 0.128964
vt 0.086563 0.000000
vt 0.094398 0.000000
vt 0.106448 0.128964
vt 0.007604 0.128964
vt 0.019682 0.000000
vt 0.027461 0.000000
vt 0.027373 0.128964
vt 0.047142 0.128964
vt 0.053933 0.000000
vt 0.060119 0.000000
vt 0.066911 0.128964
vt 0.000000 0.304019
vt 0.000000 0.257713
vt 0.022810 0.257713
vt 0.022810 0.304019
vt 0.045621 0.257713
vt 0.045621 0.304019
vt 0.068431 0.257713
vt 0.068431 0.304019
vt 0.029519 0.342607
vt 0.040522 0.342607
vt 0.051525 0.342607
vt 0.062528 0.342607
vt 0.037639 0.366404
vt 0.045394 0.366404
vt 0.053149 0.366404
vt 0.060904 0.366404
vt 0.320989 0.020928
vt 0.320989 0.018099
vt 0.331977 0.018099
vt 0.331977 0.020928
vt 0.182711 0.633687
vt 0.190466 0.633687
vt 0.198586 0.657486
vt 0.187583 0.657486
vt 0.228105 0.696080
vt 0.205294 0.696080
vt 0.228105 0.742393
vt 0.205294 0.742393
vt 0.200732 0.871117
vt 0.220500 0.871117
vt 0.208450 0.999872
vt 0.200615 0.999872
vt 0.121657 0.871117
vt 0.141425 0.871117
vt 0.141514 0.999872
vt 0.133735 0.999872
vt 0.161194 0.871117
vt 0.180963 0.871117
vt 0.174172 0.999872
vt 0.167985 0.999872
vt 0.114052 0.696080
vt 0.136863 0.696080
vt 0.136863 0.742393
vt 0.114052 0.742393
vt 0.159673 0.696080
vt 0.159673 0.742393
vt 0.182484 0.696080
vt 0.182484 0.742393
vt 0.143571 0.657486
vt 0.154574 0.657486
vt 0.165577 0.657486
vt 0.176580 0.657486
vt 0.151691 0.633687
vt 0.159446 0.633687
vt 0.167201 0.633687
vt 0.174956 0.633687
vt 0.252229 0.444658
vt 0.251183 0.366694
vt 0.262169 0.366546
vt 0.263215 0.444510
vt 0.284821 0.280953
vt 0.284821 0.288788
vt 0.281413 0.288788
vt 0.281413 0.280953
vt 0.250332 0.303244
vt 0.249711 0.256950
vt 0.260697 0.256803
vt 0.261318 0.303097
vt 0.281413 0.287139
vt 0.278006 0.287139
vt 0.278006 0.280953
vt 0.228105 0.725397
vt 0.228565 0.679101
vt 0.239552 0.679211
vt 0.239091 0.725507
vt 0.250861 0.342670
vt 0.261847 0.342523
vt 0.259167 0.961957
vt 0.253879 0.567713
vt 0.264865 0.567566
vt 0.270153 0.961810
vt 0.296822 0.129396
vt 0.305503 0.000174
vt 0.308906 0.000000
vt 0.307795 0.128835
vt 0.273833 0.280953
vt 0.273833 0.288732
vt 0.270426 0.288732
vt 0.270426 0.280953
vt 0.228957 0.639673
vt 0.229196 0.615649
vt 0.240183 0.615759
vt 0.239944 0.639783
vt 0.283624 0.128680
vt 0.283624 0.000000
vt 0.294601 0.000468
vt 0.294601 0.129147
vt 0.253466 0.128500
vt 0.267019 0.000046
vt 0.270426 0.000000
vt 0.264453 0.128352
vt 0.308906 0.129200
vt 0.317587 0.000174
vt 0.320989 0.000000
vt 0.319878 0.128637
vt 0.229971 0.537682
vt 0.240958 0.537791
vt 0.232306 0.853834
vt 0.243292 0.853943
vt 0.292401 0.258143
vt 0.292401 0.280953
vt 0.281413 0.258143
vt 0.270426 0.128854
vt 0.281404 0.000467
vt 0.281404 0.129322
vt 0.121860 0.037324
vt 0.127672 0.017122
vt 0.144214 0.004148
vt 0.146950 0.003257
vt 0.171079 0.000000
vt 0.195208 0.003257
vt 0.197943 0.004148
vt 0.214485 0.017122
vt 0.220298 0.037324
vt 0.192599 0.432524
vt 0.188252 0.555755
vt 0.153906 0.555755
vt 0.149558 0.432524
vt 0.320989 0.071365
vt 0.320989 0.068770
vt 0.331977 0.068770
vt 0.331977 0.071365
vt 0.231195 0.414622
vt 0.242181 0.414731
vt 0.270426 0.258143
vt 0.030162 0.995852
vt 0.013620 0.982880
vt 0.007807 0.962681
vt 0.035506 0.567537
vt 0.039853 0.444325
vt 0.074199 0.444325
vt 0.078547 0.567537
vt 0.106245 0.962681
vt 0.100433 0.982880
vt 0.083890 0.995852
vt 0.081155 0.996744
vt 0.057026 1.000000
vt 0.032897 0.996744
vt 0.270426 0.982171
vt 0.259440 0.982318
vt 0.331977 0.000000
vt 0.246102 0.020471
vt 0.235115 0.020362
vt 0.235317 0.000000
vt 0.246304 0.000109
vt 0.331977 0.086065
vt 0.320989 0.086065
vt 0.331977 0.045276
vt 0.320989 0.045276
vt 0.246304 0.982239
vt 0.249711 0.982273
vt 0.297933 0.258246
vt 0.308906 0.257684
vt 0.310017 0.257875
vt 0.320989 0.257312
vt 0.293418 0.257625
vt 0.296822 0.257770
vt 0.280220 0.257998
vt 0.283624 0.258143
s 1
f 11/1/1 15/2/1 4/3/1 2/4/1
f 15/2/1 19/5/1 6/6/1 4/3/1
f 19/5/1 23/7/2 8/8/3 6/6/1
f 96/9/4 27/10/5 10/11/5 95/12/6
f 87/13/6 9/14/5 30/15/5 88/16/4
f 91/17/7 29/18/5 28/19/5 92/20/7
f 5/21/1 7/22/3 26/23/2 22/24/1
f 22/24/1 26/23/2 25/25/8 21/26/1
f 21/26/1 25/25/8 24/27/8 20/28/1
f 20/28/1 24/27/8 23/7/2 19/5/1
f 3/29/1 5/21/1 22/24/1 18/30/1
f 18/30/1 22/24/1 21/26/1 17/31/1
f 17/31/1 21/26/1 20/28/1 16/32/1
f 16/32/1 20/28/1 19/5/1 15/2/1
f 1/33/1 3/29/1 18/30/1 14/34/1
f 14/34/1 18/30/1 17/31/1 13/35/1
f 13/35/1 17/31/1 16/32/1 12/36/1
f 12/36/1 16/32/1 15/2/1 11/1/1
f 81/37/9 73/38/10 78/39/10 85/40/9
f 45/41/11 36/42/11 38/43/11 49/44/11
f 49/44/11 38/43/11 40/45/11 53/46/11
f 53/46/11 40/45/11 42/47/12 57/48/13
f 98/49/14 97/50/15 44/51/16 61/52/16
f 89/53/15 90/54/14 64/55/16 43/56/16
f 93/57/17 94/58/17 62/59/16 63/60/16
f 39/61/11 56/62/11 60/63/13 41/64/12
f 56/62/11 55/65/11 59/66/18 60/63/13
f 55/65/11 54/67/11 58/68/18 59/66/18
f 54/67/11 53/46/11 57/48/13 58/68/18
f 37/69/11 52/70/11 56/62/11 39/61/11
f 52/70/11 51/71/11 55/65/11 56/62/11
f 51/71/11 50/72/11 54/67/11 55/65/11
f 50/72/11 49/44/11 53/46/11 54/67/11
f 35/73/11 48/74/11 52/70/11 37/69/11
f 48/74/11 47/75/11 51/71/11 52/70/11
f 47/75/11 46/76/11 50/72/11 51/71/11
f 46/76/11 45/41/11 49/44/11 50/72/11
f 31/77/19 2/78/20 36/79/20 65/80/19
f 10/81/21 27/82/21 61/83/21 44/84/21
f 6/85/22 8/86/23 42/87/24 40/88/22
f 28/84/21 29/89/21 63/90/21 62/91/21
f 7/92/25 5/93/26 39/94/26 41/95/27
f 2/78/20 4/96/28 38/97/28 36/79/20
f 72/98/29 33/99/30 67/100/30 79/101/29
f 88/102/31 30/103/32 64/104/32 90/105/33
f 30/106/21 9/107/21 43/108/21 64/109/21
f 3/110/34 1/111/35 35/112/35 37/113/34
f 91/114/36 25/115/37 59/116/37 93/117/38
f 33/99/30 31/77/19 65/80/19 67/100/30
f 95/118/39 10/119/40 44/120/40 97/121/41
f 92/122/42 28/123/43 62/124/43 94/125/44
f 1/111/35 32/126/45 66/127/45 35/112/35
f 87/128/46 7/92/25 41/95/27 89/129/47
f 23/130/21 24/131/21 58/84/21 57/132/21
f 4/96/28 6/85/48 40/88/48 38/97/28
f 96/133/49 23/120/50 57/134/50 98/135/51
f 75/136/11 77/137/11 76/138/11 84/139/11 86/140/11 85/141/11 78/142/11 80/143/11 79/144/11 67/145/11 65/146/11 36/42/11 45/41/11 46/76/11 47/75/11 48/74/11 35/73/11 66/147/11 68/148/11
f 5/93/52 3/110/34 37/113/34 39/94/52
f 69/149/53 82/150/54 84/151/54 76/152/53
f 32/126/45 34/153/55 68/154/55 66/127/45
f 25/132/21 26/84/21 60/109/21 59/155/21
f 69/156/1 71/157/1 70/158/1 34/159/1 32/160/1 1/33/1 14/34/1 13/35/1 12/36/1 11/1/1 2/4/1 31/161/1 33/162/1 72/163/1 74/164/1 73/165/1 81/166/1 83/167/1 82/168/1
f 72/98/29 79/101/29 80/169/56 74/170/56
f 74/124/57 80/171/57 78/39/10 73/38/10
f 75/172/58 70/173/58 71/174/59 77/175/59
f 77/176/60 71/177/60 69/149/53 76/152/53
f 81/37/9 85/40/9 86/178/61 83/179/61
f 83/179/61 86/178/61 84/151/54 82/150/54
f 34/153/55 70/173/58 75/172/58 68/154/55
f 9/180/62 87/128/46 89/129/47 43/181/62
f 26/182/63 88/102/31 90/105/33 60/183/63
f 41/64/12 60/63/13 90/54/14 89/53/15
f 7/22/3 87/13/6 88/16/4 26/23/2
f 24/184/64 92/122/42 94/125/44 58/185/64
f 29/186/65 91/114/36 93/117/38 63/187/65
f 59/66/18 58/68/18 94/58/17 93/57/17
f 25/25/8 91/17/7 92/20/7 24/27/8
f 27/188/66 96/133/49 98/135/51 61/189/66
f 8/86/23 95/118/39 97/121/41 42/87/24
f 57/48/13 42/47/12 97/50/15 98/49/14
f 23/7/2 96/9/4 95/12/6 8/8/3
